# xmcd CD database file
#
# Track frame offsets:
#	150
#	18268
#	33423
#	47750
#	65452
#	82036
#	100512
#	116190
#	133670
#	148762
#	164756
#	178884
#	189760
#	201141
#
# Disc length: 2897 seconds
#
# Revision: 1
# Processed by: cddbd v1.5.2PL0 Copyright (c) Steve Scherf et al.
# Submitted via: CDex 1.51
#
DISCID=c60b4f0e
DTITLE=Maciel Melo - O Solado da Chinela
DYEAR=2002
DGENRE=Country
TTITLE0=O Solado da Chinela
TTITLE1=Forro de Candeeiro
TTITLE2=Minha Fala
TTITLE3=Bandoleiro
TTITLE4=O Menino e os Carneiros
TTITLE5=Flor Mulher
TTITLE6=Cair na Brincadeira
TTITLE7=Sanfona Velha
TTITLE8=Dia dos Namorados
TTITLE9=Maria da Santa Fe
TTITLE10=Fuxico
TTITLE11=Coco da Parafuzeta
TTITLE12=Serrote Agudo
TTITLE13=Pingo D´agua
EXTD=YEAR: 2002
EXTT0=
EXTT1=
EXTT2=
EXTT3=
EXTT4=
EXTT5=
EXTT6=
EXTT7=
EXTT8=
EXTT9=
EXTT10=
EXTT11=
EXTT12=
EXTT13=
PLAYORDER=
